<svg xmlns="http://www.w3.org/2000/svg" width="241.56" height="54.013" viewBox="0 0 241.56 54.013"><defs><style>.a,.g{fill:#5a8c2f;}.b{fill:#ffcea9;}.c,.e{fill:#f9ae41;}.d,.f{fill:#faaf40;}.e{fill-rule:evenodd;}.f{stroke:#fbb03b;font-family:SegoeUI, Segoe UI;}.f,.g{stroke-miterlimit:10;stroke-width:1.9px;font-size:32px;letter-spacing:0.005em;}.g{stroke:#5a8c2f;font-family:MyriadPro-Regular, Myriad Pro;}</style></defs><g transform="translate(-1.25 -1)"><g transform="translate(120.386 11.649)"><path class="a" d="M213.289,34.738c0,8.26-5.606,17.161-17.358,17.161h-9.884a2.2,2.2,0,0,1-2.213-2.213V19.838a2.246,2.246,0,0,1,2.213-2.262h9.884C207.683,17.576,213.289,26.427,213.289,34.738Zm-4.426,0c0-7.671-5.261-12.982-13.473-12.982h-7.081V47.719h7.081C203.6,47.719,208.863,42.408,208.863,34.738Z" transform="translate(-183.651 -17.392)"/><path class="a" d="M195.834,51.985H185.95a2.4,2.4,0,0,1-2.4-2.4V19.74a2.424,2.424,0,0,1,2.4-2.445h9.884c5.459,0,10.032,1.911,13.224,5.527a18.027,18.027,0,0,1,4.318,11.819C213.375,43.259,207.35,51.985,195.834,51.985ZM185.95,17.662a2.057,2.057,0,0,0-2.03,2.078V49.589a2.032,2.032,0,0,0,2.03,2.029h9.884c11.275,0,17.174-8.541,17.174-16.977,0-8.177-5.374-16.978-17.174-16.978Zm9.342,30.143h-7.264V21.475h7.264c8.169,0,13.657,5.291,13.657,13.165S203.462,47.805,195.293,47.805Zm-6.9-.367h6.9c7.949,0,13.29-5.143,13.29-12.8s-5.341-12.8-13.29-12.8h-6.9Z" transform="translate(-183.554 -17.295)"/></g><path class="b" d="M44.072,25.48l.008.011-.089-.109-.037-.05h0a18.274,18.274,0,0,0-1.606-1.854A18.114,18.114,0,1,0,47.2,40.31h-1a7.639,7.639,0,0,1-.478,1.241,2.789,2.789,0,0,1-.823-1.241H34.308a6.079,6.079,0,0,1,1.112.376c1.152.532,1.5,1.658,2.422,2.336.494,1.9-.633,3.671-.865,5.277-.127.884.224,1.7,0,2.509-.312,1.138-1.8,1.191-2.768,1.644-1.128-1.093-1.78-2.66-2.855-3.806-.016-1.2-.682-2.038-.692-3.114-.013-1.351.97-2.687.692-4.412-2.038-.2-3.869.272-5.536,0A7.5,7.5,0,0,1,23.4,40.08c-1.3-.878-2.054-2.519-2.768-3.806-.071-.016-.087-.087-.173-.086a22.729,22.729,0,0,1,.519,2.422c-1.006-1.271-.885-2.9-1.557-4.5a5.767,5.767,0,0,1-.605-1.384c-.2-1.963,1.636-3.844.346-5.536-.472-.336-1.166-.449-1.644-.779-.423.154-.607.547-1.038.692a5.291,5.291,0,0,0-.692-1.211c.516-.637,1.031-1.276,1.557-1.9,1.045-.255,2-.58,3.028-.865a13,13,0,0,1,3.028-.779c.758.014,1.593.821,2.509.865.351.017.819-.293,1.125-.259.489.056,1.319.944,1.73,1.3.578.5,1.133.787,1.644,1.3.476.477.978,1.453,1.557,2.163.148.181,1.031.933,1.038,1.124.014.35-1.566,1.9-2.045,2.579h9.9a7.422,7.422,0,0,0,1.143-1.108,15.915,15.915,0,0,1,3.636,1.108H47.15v0a17.5,17.5,0,0,0-1.677-4.09l-.021.019ZM32.22,21.309c-1.583-.168-2.911.454-4.239.173-1.142-.242-1.871-1.436-2.855-1.73a13.935,13.935,0,0,1,8.564-.086A8.006,8.006,0,0,1,32.22,21.309ZM42.428,27.97c-.6.182-.931.627-1.47.865a9.994,9.994,0,0,1-1.038-.432c.556-1.724-.6-3.9.52-4.931,2.253,1.236,3.207,3.771,4.758,5.71A12.913,12.913,0,0,1,42.428,27.97Z" transform="translate(-3.527 -5.95)"/><g transform="translate(1.335 5.656)"><path class="c" d="M46.2,30.1c0,.021.007.042.01.063H26.487a2.331,2.331,0,0,0,0,4.661H46.308A20.4,20.4,0,1,1,42.27,20.681h0l.018.022c.037.049.078.094.114.143l.009-.008a2.126,2.126,0,0,0,1.442.674,2.183,2.183,0,0,0,1.593-.831,2.026,2.026,0,0,0,.089-2.606l.049-.042a24.565,24.565,0,1,0,4.88,12.026Z" transform="translate(-1.492 -8.237)"/><path class="d" d="M26.058,57.482h0A24.678,24.678,0,1,1,45.64,17.793l.12.157-.065.057a2.177,2.177,0,0,1-.206,2.707,2.406,2.406,0,0,1-1.747.9,2.238,2.238,0,0,1-1.448-.6l-.028.024-.145-.174c-.017-.023-.035-.045-.054-.067l-.059-.074a20.342,20.342,0,0,0-1.795-2.072,20.023,20.023,0,1,0,5.75,16.273H26.376a2.541,2.541,0,0,1,0-5.082H45.865l.221-.063,4.456-.041.022.188a25.089,25.089,0,0,1,.173,2.879A24.708,24.708,0,0,1,26.058,57.482Zm0-48.935A24.3,24.3,0,1,0,50.166,30.16l-3.837.035v0l-.231.063H26.376a2.12,2.12,0,0,0,0,4.239H46.414l-.008.229a20.615,20.615,0,1,1-4.08-14.287l.067.084.008.01.048.042a1.909,1.909,0,0,0,1.293.611,2.012,2.012,0,0,0,1.439-.763,1.81,1.81,0,0,0,.065-2.349l-.1-.153.036-.031A24.1,24.1,0,0,0,26.058,8.547Z" transform="translate(-1.38 -8.125)"/></g><g transform="translate(1.25 1)"><path class="e" d="M3.224,13.781c.2.389.823.593.87.962-.7-.3-.8-.908-1.236-1.239-.251-.19-.618-.109-.869-.284a1.936,1.936,0,0,1-.305-2.756c.569-.8,1.508-1.006,2.138-1.544A17.206,17.206,0,0,0,6.077,6.074,3.692,3.692,0,0,0,6.3,4.59a3.316,3.316,0,0,1,.29-1.369c.056-.337-.117-.663.071-1.006.033-.306-.247-.6-.012-.913a3.093,3.093,0,0,1,.455,1.541c.266-.631-.383-1.22-.292-1.843a2.268,2.268,0,0,1,.614,1.8c.18.082.618-.084.974.042.3.108.618.378.966.486s.742.072.921.163c.758.389.609,1.484-.209,1.219a2.843,2.843,0,0,1-1.353.682,7.669,7.669,0,0,1-.018,1.5A3.147,3.147,0,0,1,9.161,9c.291.484.544,1.129.936,1.754a3.764,3.764,0,0,0,.945,1.312c.285.2.661.114.9.253a1.873,1.873,0,0,1-.566.5c-.18,0-.11-.191-.25-.283-.1.007-.191.107-.291.072a21.477,21.477,0,0,1-2.123-2.554c.01.55.744,1.044,1.08,1.66.062.113.041.274.106.378a1.714,1.714,0,0,0,1.459.934l-.505.554a1.973,1.973,0,0,0-.7-.409c-.559-.866-1.557-1.553-2.176-2.434-.512.509-.917,1.4-1.6,1.755-.383.2-.814.082-1.106.287.35.587.262,1.485.718,2.119a3.118,3.118,0,0,0,1.133.92c.31.129.613-.018.955.25a1.658,1.658,0,0,1-.566.5.649.649,0,0,1-.252-.341c-.7.135-1.422-.818-2.217-1.4a3.375,3.375,0,0,0,1.44,1.819c.314.159.645.116.871.344-.2.205-.4.287-.6.469a2.769,2.769,0,0,1-.255-.4.921.921,0,0,1-.725-.379c-.418-.443-1.105-.821-1.352-1.174-.186-.267-.145-.728-.371-1.015C3.81,14.172,3.494,14.14,3.224,13.781Z" transform="translate(-1.25 -1)"/></g><text class="f" transform="translate(50.691 44.949)"><tspan x="0" y="0">lobe</tspan></text><text class="g" transform="translate(150.207 45.058)"><tspan x="0" y="0">rop </tspan></text></g></svg>